<?xml version="1.0" standalone="no"?>
<!DOCTYPE svg PUBLIC "-//W3C//DTD SVG 20010904//EN"
 "http://www.w3.org/TR/2001/REC-SVG-20010904/DTD/svg10.dtd">
<svg version="1.0" xmlns="http://www.w3.org/2000/svg"
 width="800.000000pt" height="800.000000pt" viewBox="0 0 800.000000 800.000000"
 preserveAspectRatio="xMidYMid meet">
<metadata>
Created by potrace 1.14, written by Peter Selinger 2001-2017
</metadata>
<g transform="translate(0.000000,800.000000) scale(0.100000,-0.100000)"
fill="#000000" stroke="none">
<path d="M0 4000 l0 -4000 4000 0 4000 0 0 4000 0 4000 -4000 0 -4000 0 0
-4000z m3590 3103 c77 -21 152 -74 192 -136 31 -49 33 -57 33 -143 0 -83 -2
-94 -28 -133 -16 -24 -27 -45 -24 -47 2 -3 26 0 53 7 80 18 284 13 418 -10
336 -59 681 -215 991 -447 217 -162 383 -329 509 -509 61 -87 109 -168 71
-120 -9 11 -46 61 -83 112 -306 419 -828 777 -1327 911 -233 63 -510 74 -675
26 -23 -6 -23 -4 11 32 64 70 73 92 73 174 1 86 -13 119 -76 182 -64 64 -135
91 -253 96 l-100 4 -91 -46 c-75 -37 -105 -60 -170 -128 -83 -87 -179 -197
-276 -314 -234 -284 -323 -387 -343 -396 -54 -24 -106 26 -76 73 15 26 15 27
-21 49 -44 26 -111 26 -154 -1 -73 -44 -112 -163 -93 -280 12 -78 37 -126 88
-172 41 -37 59 -45 121 -49 l35 -3 5 -200 c3 -110 4 -202 3 -204 -2 -2 -23 15
-48 38 -58 54 -169 107 -265 127 -114 24 -284 15 -370 -21 -108 -45 -173 -103
-213 -190 -13 -27 -29 -61 -35 -75 l-12 -25 6 25 c11 48 54 128 94 172 73 84
233 147 370 148 149 0 341 -62 423 -138 l27 -26 0 177 0 177 -30 0 c-39 0 -85
23 -128 64 -81 75 -112 214 -76 337 21 70 53 112 107 138 55 27 82 26 137 -1
44 -23 45 -24 45 -73 0 -46 2 -50 26 -53 20 -2 35 8 70 46 58 63 179 206 272
320 118 144 281 325 349 386 60 54 122 90 220 125 55 20 132 18 218 -6z m51
-136 c55 -37 79 -81 79 -147 0 -54 -3 -60 -35 -89 -37 -33 -50 -37 -60 -22 -3
6 7 16 22 23 25 12 28 19 31 69 2 48 -1 61 -23 87 -50 60 -115 63 -217 11 -69
-35 -142 -134 -186 -251 -33 -87 -64 -256 -56 -306 l6 -42 32 20 c182 123 519
191 786 161 660 -76 1292 -464 1652 -1016 65 -99 146 -259 177 -351 33 -95 71
-265 71 -316 0 -77 6 -82 51 -46 53 43 81 104 81 178 0 69 -15 121 -43 145
-18 18 -20 18 -32 1 -21 -28 -52 -17 -52 19 0 43 42 62 87 40 45 -22 67 -55
79 -121 10 -54 3 -138 -16 -186 -6 -15 -1 -15 47 3 105 39 154 68 204 121 71
73 104 126 104 165 0 43 24 44 39 2 15 -44 14 -86 -5 -150 -28 -97 -100 -186
-234 -289 -143 -109 -196 -179 -234 -304 -23 -76 -47 -279 -32 -264 4 3 33 57
65 120 79 157 142 250 236 344 94 95 152 127 222 122 55 -3 62 -20 12 -29 -43
-7 -70 -21 -142 -77 -55 -41 -112 -107 -124 -142 -3 -8 -17 -40 -31 -70 -50
-112 -57 -142 -93 -402 -16 -112 -11 -120 34 -55 51 74 109 127 181 163 78 39
131 86 152 134 28 63 60 47 45 -21 -14 -60 -49 -116 -101 -160 -121 -103 -153
-136 -175 -179 -30 -60 -71 -190 -96 -309 -92 -433 -337 -865 -675 -1192 -106
-102 -276 -241 -362 -296 -30 -19 -52 -37 -49 -39 2 -2 37 9 77 26 41 17 99
37 131 45 68 18 198 20 234 3 38 -17 32 -37 -12 -36 -44 0 -161 -40 -247 -84
-242 -124 -605 -246 -881 -297 -376 -70 -764 -70 -1070 1 -532 123 -1034 513
-1151 895 -36 118 -21 189 49 232 59 36 157 20 157 -26 0 -12 -7 -14 -32 -8
-55 12 -82 7 -106 -22 -21 -25 -23 -36 -19 -98 6 -114 67 -215 195 -328 139
-123 300 -219 489 -291 153 -59 143 -60 189 36 l39 83 3 401 c3 342 1 406 -12
437 -8 21 -22 37 -30 37 -34 0 -189 -147 -277 -265 -94 -126 -199 -315 -199
-359 0 -27 -12 -46 -30 -46 -11 0 -21 4 -25 9 -13 23 -27 189 -40 501 -18 429
-43 557 -123 643 -30 32 -64 34 -157 12 -341 -83 -700 210 -596 486 57 150
207 207 294 111 45 -49 40 -138 -9 -161 -34 -15 -50 -14 -68 5 -20 19 -12 34
18 34 50 0 63 61 20 101 -56 52 -170 9 -202 -76 -23 -63 -21 -171 5 -227 29
-63 106 -144 167 -175 45 -23 59 -25 135 -21 96 5 166 31 236 87 120 96 220
282 239 444 5 43 -5 65 -17 34 -2 -7 -26 -23 -51 -36 -57 -28 -147 -31 -195
-6 -38 19 -91 98 -91 134 1 32 22 61 45 61 14 0 16 -6 10 -36 -8 -44 12 -70
66 -84 47 -13 76 -2 124 46 132 131 154 416 53 669 -68 168 -205 332 -331 395
-51 26 -72 30 -138 30 -160 0 -269 -70 -269 -173 0 -36 27 -80 62 -98 15 -8
24 -7 37 5 27 24 51 20 51 -9 0 -58 -89 -71 -155 -21 -48 37 -69 88 -62 156
10 116 79 214 185 263 41 19 64 22 177 21 122 -1 134 -3 203 -32 106 -45 201
-112 280 -197 69 -74 85 -87 77 -62 -2 6 -9 170 -15 362 -6 193 -13 358 -16
368 -4 13 -16 17 -53 17 -131 0 -248 173 -172 254 26 28 71 35 71 12 0 -8 -7
-16 -15 -20 -9 -3 -15 -18 -15 -36 0 -62 82 -104 154 -80 68 22 246 203 349
355 124 182 264 332 401 430 137 98 225 133 332 134 58 1 77 -3 105 -22z
m2257 -1560 c45 -95 51 -103 92 -121 54 -24 124 -94 149 -151 25 -56 46 -175
31 -175 -4 0 -10 25 -13 55 -12 121 -119 265 -195 265 -17 0 -27 9 -38 38 -9
20 -30 66 -47 102 -45 94 -48 102 -37 95 6 -4 32 -52 58 -108z m619 -156 c13
-18 27 -50 33 -70 13 -48 13 -210 -1 -250 -10 -28 -9 -33 14 -51 70 -55 93
-290 29 -290 -50 0 -188 -126 -263 -240 -40 -61 -99 -174 -99 -190 0 -22 29
-8 86 41 68 60 129 136 156 197 15 32 24 42 43 42 81 0 116 -215 60 -367 -18
-51 -18 -22 0 47 18 68 19 173 1 223 -16 43 -43 77 -61 77 -7 0 -30 -30 -51
-67 -50 -84 -148 -187 -205 -212 -57 -26 -60 -15 -16 81 75 164 215 328 313
369 50 21 54 25 60 64 12 84 -32 211 -77 222 -15 4 -19 12 -16 27 3 12 11 41
17 66 14 53 7 177 -13 235 -8 21 -25 48 -39 58 -44 33 -74 9 -133 -108 -27
-55 -63 -120 -79 -143 -31 -45 -93 -95 -108 -86 -14 9 -9 24 10 24 37 0 132
124 181 235 48 108 112 135 158 66z m-5060 -108 c-2 -21 -4 -6 -4 32 0 39 2
55 4 38 2 -18 2 -50 0 -70z m571 -19 c181 -90 353 -382 352 -598 -1 -95 -44
-172 -101 -178 -21 -3 -24 1 -21 24 5 51 -13 68 -69 68 -28 0 -66 -7 -85 -16
-66 -31 -123 -132 -109 -194 7 -32 -9 -43 -17 -12 -3 11 -29 31 -59 45 -155
78 -340 -11 -405 -196 -97 -275 73 -551 411 -664 44 -15 57 -22 35 -19 -58 7
-213 79 -279 130 -106 82 -166 169 -195 287 -26 107 -16 203 34 316 42 96 148
175 252 189 46 6 141 -16 174 -41 27 -21 34 -18 34 11 0 64 75 153 148 175 24
7 59 9 85 5 39 -6 47 -11 56 -37 5 -16 8 -36 5 -44 -8 -19 6 -19 34 1 92 64
68 288 -54 494 -49 82 -175 210 -235 238 -43 21 -118 30 -132 16 -3 -4 5 -15
18 -26 57 -45 53 -145 -8 -215 -38 -44 -118 -83 -170 -83 -105 0 -228 116
-265 253 -6 21 -7 37 -1 37 5 0 9 -9 9 -20 0 -32 54 -131 95 -173 77 -79 170
-101 251 -60 84 44 134 125 119 194 -7 32 -48 69 -76 69 -30 0 -22 20 14 35
48 21 97 18 155 -11z m4487 -1202 c-31 -61 -67 -115 -97 -145 -43 -43 -50 -55
-64 -125 -39 -192 -156 -500 -290 -760 -126 -242 -247 -423 -372 -554 l-63
-66 43 -7 c51 -9 137 -50 144 -70 3 -7 1 -23 -5 -34 -16 -28 -139 -127 -256
-203 -118 -77 -125 -81 -125 -74 0 2 51 38 113 79 126 85 241 177 257 207 9
16 6 22 -14 35 -51 34 -128 56 -168 50 -21 -4 -38 -5 -38 -2 0 2 21 21 48 41
164 127 423 552 586 961 57 146 119 345 131 428 6 40 16 57 64 105 41 40 70
83 102 149 24 50 46 89 48 87 3 -2 -17 -48 -44 -102z m-4193 -534 c30 -54 38
-107 38 -264 l0 -161 -66 -7 c-78 -8 -149 -41 -202 -94 -45 -45 -69 -93 -85
-167 -15 -72 -3 -117 68 -260 146 -294 424 -551 794 -735 239 -119 448 -181
811 -243 18 -3 15 -5 -12 -6 -20 0 -68 6 -107 14 -39 8 -85 17 -103 20 -126
22 -331 85 -478 148 -261 111 -478 255 -658 438 -117 120 -193 225 -267 373
-63 125 -65 131 -65 206 0 66 4 86 30 138 54 108 147 172 263 180 l67 5 0 125
c0 160 -15 248 -47 280 -14 14 -30 21 -39 18 -9 -3 -28 -8 -42 -11 -20 -4 -18
-2 8 9 51 21 77 19 92 -6z m-199 -15 c-13 -2 -33 -2 -45 0 -13 2 -3 4 22 4 25
0 35 -2 23 -4z m907 -831 l1 -298 -33 -72 c-18 -40 -39 -72 -46 -72 -7 0 -42
14 -79 30 -75 34 -163 99 -199 145 l-24 32 29 85 c59 173 147 315 271 433 60
56 63 58 71 37 5 -12 9 -156 9 -320z m2390 -667 c0 -7 -63 -45 -75 -45 -5 0 8
11 30 25 44 27 45 27 45 20z m-95 -55 c-7 -11 -105 -63 -105 -56 0 4 101 65
108 66 2 0 0 -5 -3 -10z m-156 -84 c-2 -2 -15 -9 -29 -15 -24 -11 -24 -11 -6
3 16 13 49 24 35 12z m-93 -43 c-7 -13 -105 -60 -181 -89 -110 -41 -307 -104
-325 -103 -8 0 32 15 90 34 123 39 258 90 350 133 75 35 73 34 66 25z m-631
-219 c-27 -7 -77 -16 -110 -18 -53 -5 -50 -3 30 13 107 22 150 25 80 5z m-568
-38 c5 -5 -13 -6 -41 -2 -27 3 -64 6 -83 6 -19 0 -32 3 -29 8 6 10 142 -1 153
-12z m313 10 c0 -2 -15 -6 -34 -8 -19 -2 -32 0 -30 4 5 8 64 12 64 4z m53 -3
c-7 -2 -21 -2 -30 0 -10 3 -4 5 12 5 17 0 24 -2 18 -5z m-235 -10 c-10 -2 -28
-2 -40 0 -13 2 -5 4 17 4 22 1 32 -1 23 -4z"/>
<path d="M3210 6814 c-123 -86 -266 -244 -393 -430 -85 -125 -265 -311 -335
-345 -43 -22 -98 -23 -147 -3 -41 16 8 -28 53 -48 31 -14 54 -17 85 -13 71 11
70 17 78 -353 4 -180 10 -394 13 -475 6 -146 6 -148 -15 -145 -14 2 -25 15
-33 38 -19 56 -89 151 -155 213 -198 183 -483 242 -628 131 -35 -27 -93 -99
-93 -117 0 -5 22 10 48 35 71 67 183 98 284 79 202 -37 398 -240 488 -505 90
-267 55 -525 -92 -668 -31 -30 -43 -48 -33 -48 27 0 72 28 98 61 40 51 57 35
57 -53 0 -208 -147 -462 -331 -570 l-64 -38 41 0 c23 0 63 7 90 15 62 19 107
19 143 0 113 -58 148 -228 171 -826 5 -140 12 -263 16 -272 4 -12 19 11 50 74
104 213 261 405 423 517 87 60 84 38 90 631 l6 514 105 99 c58 55 119 107 135
116 24 13 26 17 13 20 -33 7 -126 -28 -169 -63 -42 -36 -79 -60 -82 -53 -8 15
13 2107 21 2160 23 142 65 257 124 341 27 38 13 34 -62 -19z m-72 -202 c2 -20
-5 -46 -17 -68 -50 -84 -48 -26 -43 -1751 l5 -1612 -36 -15 c-111 -46 -293
-234 -393 -407 -21 -35 -40 -66 -44 -69 -4 -3 -9 -12 -12 -20 -8 -24 -18 113
-28 410 -8 219 -14 288 -29 340 -27 91 -42 131 -59 158 -18 28 -82 62 -116 62
-41 0 -40 17 4 72 111 139 200 441 170 575 -11 49 -13 53 -36 47 -32 -8 -32
12 1 76 14 27 32 75 40 107 19 71 21 294 3 322 -10 17 -7 24 20 49 24 22 32
39 32 64 0 18 -5 262 -10 542 -6 280 -8 516 -5 525 3 9 23 29 45 44 35 25 146
174 315 426 60 89 139 163 169 159 16 -2 22 -11 24 -36z"/>
<path d="M2630 4955 c0 -8 2 -15 4 -15 2 0 6 7 10 15 3 8 1 15 -4 15 -6 0 -10
-7 -10 -15z"/>
<path d="M3022 4927 c-17 -40 -15 -54 4 -35 9 8 14 26 12 39 -4 24 -5 24 -16
-4z"/>
<path d="M2780 4835 c-39 -35 -98 -85 -130 -111 -48 -38 -60 -53 -60 -75 0
-16 4 -29 8 -29 12 0 262 257 262 269 0 18 -7 13 -80 -54z"/>
<path d="M2606 4855 c-32 -49 -11 -64 23 -16 25 34 26 41 7 41 -7 0 -21 -11
-30 -25z"/>
<path d="M2980 4855 c-7 -8 -17 -15 -22 -15 -5 0 -94 -86 -199 -191 -143 -143
-194 -201 -205 -231 -8 -22 -14 -43 -14 -46 0 -19 342 343 412 436 26 34 46
62 44 62 -2 0 -9 -7 -16 -15z"/>
<path d="M2743 4718 c-163 -157 -166 -160 -161 -188 2 -15 27 4 118 93 114
110 221 237 201 237 -6 0 -77 -64 -158 -142z"/>
<path d="M2994 4808 c-23 -29 -129 -142 -235 -252 -107 -109 -195 -204 -197
-211 -10 -43 36 -3 199 173 101 108 205 219 232 246 34 36 47 56 45 73 -3 21
-7 18 -44 -29z"/>
<path d="M2628 4794 c-31 -20 -38 -30 -38 -56 l0 -32 36 35 c66 64 67 95 2 53z"/>
<path d="M2894 4632 c-246 -258 -316 -340 -312 -364 2 -18 39 17 204 197 111
121 215 232 233 248 31 28 41 57 19 57 -7 -1 -72 -63 -144 -138z"/>
<path d="M2978 4648 c-115 -120 -355 -383 -377 -414 -79 -111 58 23 392 383
31 34 57 66 57 72 0 23 -23 9 -72 -41z"/>
<path d="M2824 4409 c-115 -122 -210 -229 -212 -238 -2 -9 10 -1 28 19 18 19
66 71 108 116 43 44 102 107 132 140 31 32 82 87 114 122 33 34 55 62 49 62
-5 0 -104 -99 -219 -221z"/>
<path d="M2874 4413 c-87 -93 -191 -202 -230 -243 -66 -70 -94 -110 -76 -110
7 0 247 247 415 427 63 68 79 93 58 93 -4 0 -80 -75 -167 -167z"/>
<path d="M2854 4323 c-98 -104 -207 -218 -242 -255 -35 -37 -62 -72 -60 -78 3
-10 50 36 376 371 111 115 137 149 114 149 -5 0 -89 -84 -188 -187z"/>
<path d="M2792 4198 c-230 -232 -279 -284 -270 -293 7 -7 529 509 528 523 0 6
-3 12 -8 12 -4 0 -116 -109 -250 -242z"/>
<path d="M2923 4262 c-61 -59 -182 -174 -268 -257 -86 -82 -166 -167 -177
-189 -11 -21 -15 -37 -10 -35 5 2 138 129 296 283 251 245 308 307 279 306 -5
-1 -58 -49 -120 -108z"/>
<path d="M2924 4192 c-507 -486 -550 -531 -498 -520 16 3 624 608 624 620 0
18 -20 2 -126 -100z"/>
<path d="M2743 3949 c-161 -159 -293 -291 -293 -294 0 -3 8 -5 18 -5 15 0 552
529 575 567 4 7 4 14 0 16 -5 3 -140 -125 -300 -284z"/>
<path d="M2762 3907 c-149 -150 -272 -276 -272 -280 0 -4 6 -7 13 -7 18 0 540
537 535 550 -2 6 -126 -113 -276 -263z"/>
<path d="M2777 3861 c-225 -226 -281 -291 -249 -291 8 0 486 496 511 531 44
61 -35 -11 -262 -240z"/>
<path d="M2916 3938 c-65 -68 -176 -182 -247 -254 -85 -87 -129 -138 -129
-152 0 -12 4 -22 8 -22 7 0 364 379 470 498 32 37 39 52 23 52 -4 0 -61 -55
-125 -122z"/>
<path d="M2990 3943 c-24 -27 -91 -97 -150 -158 -224 -231 -280 -295 -280
-318 1 -20 4 -18 37 18 20 22 84 92 143 155 92 100 254 280 298 333 8 9 10 17
5 17 -6 0 -30 -21 -53 -47z"/>
<path d="M2940 3829 c-52 -57 -136 -147 -185 -199 -152 -160 -185 -198 -185
-217 0 -21 73 52 255 256 66 74 142 159 168 187 27 29 47 58 45 65 -2 6 -46
-35 -98 -92z"/>
<path d="M2832 3653 c-233 -254 -252 -276 -252 -294 1 -15 9 -6 275 287 188
207 202 224 187 224 -5 0 -99 -98 -210 -217z"/>
<path d="M3016 3789 c-8 -12 -57 -65 -109 -118 -132 -135 -327 -350 -327 -362
0 -18 19 -9 45 24 15 17 117 128 226 245 110 117 199 217 199 222 0 17 -18 11
-34 -11z"/>
<path d="M3008 3711 c-13 -16 -112 -121 -220 -235 -109 -113 -198 -213 -198
-221 0 -9 51 37 112 102 62 65 166 173 230 239 65 67 118 127 118 133 0 19
-18 12 -42 -18z"/>
<path d="M2814 3444 c-120 -125 -220 -235 -222 -244 -2 -10 52 39 120 109 347
355 352 361 331 361 -5 0 -108 -102 -229 -226z"/>
<path d="M2811 3373 c-122 -125 -221 -231 -221 -237 1 -10 460 450 460 460 0
18 -47 -26 -239 -223z"/>
<path d="M2812 3316 c-189 -190 -239 -246 -218 -246 8 0 448 461 444 465 -2 3
-104 -96 -226 -219z"/>
<path d="M2939 3393 c-215 -221 -349 -364 -349 -373 0 -6 4 -10 8 -10 6 0 216
221 323 340 12 14 47 51 78 83 30 31 51 57 45 57 -5 0 -52 -44 -105 -97z"/>
<path d="M2830 3211 c-213 -220 -249 -261 -232 -261 5 0 76 71 158 158 82 86
182 192 223 234 41 43 72 80 69 83 -3 3 -101 -93 -218 -214z"/>
<path d="M3022 3355 c-4 -9 -75 -84 -158 -168 -237 -242 -267 -274 -262 -287
4 -12 448 443 448 460 0 15 -18 12 -28 -5z"/>
<path d="M2890 3153 c-258 -264 -292 -301 -288 -313 3 -10 186 181 372 388 70
77 32 44 -84 -75z"/>
<path d="M2972 3190 c-35 -39 -60 -70 -55 -70 10 0 133 122 133 133 0 17 -19
2 -78 -63z"/>
<path d="M3025 3190 c-3 -6 1 -7 9 -4 18 7 21 14 7 14 -6 0 -13 -4 -16 -10z"/>
<path d="M2641 2835 c-45 -49 -57 -83 -13 -38 27 28 66 83 59 83 -3 0 -23 -20
-46 -45z"/>
<path d="M3480 6300 c-87 -11 -143 -25 -214 -52 l-59 -23 -3 -415 c-1 -228 -6
-632 -9 -897 l-7 -483 59 31 c47 24 73 31 124 31 96 2 138 -27 139 -94 0 -31
-4 -38 -19 -38 -14 0 -21 8 -23 28 -6 50 -47 29 -192 -98 -46 -41 -87 -82 -90
-90 -3 -8 -8 -236 -11 -506 l-6 -492 31 -68 c27 -60 29 -69 15 -83 -41 -46
-43 -73 -47 -471 l-3 -385 27 -75 c15 -41 35 -97 46 -125 l18 -50 64 -8 c66
-8 262 -2 314 9 l29 7 -6 941 c-10 1593 -11 1594 -76 1724 -37 73 -86 132
-111 132 -9 0 -29 -10 -44 -21 -15 -12 -29 -19 -32 -17 -10 11 39 57 70 68 46
15 101 78 140 159 l31 66 -3 610 c-2 336 -4 628 -5 650 -2 39 -3 40 -42 41
-22 1 -69 -2 -105 -6z m78 -703 l-3 -622 -47 -66 c-48 -68 -83 -99 -155 -139
-78 -43 -73 -74 -73 507 0 285 -3 591 -6 679 l-7 162 24 13 c34 18 230 87 252
88 17 1 17 -31 15 -622z m-20 -1396 c19 -11 19 -21 26 -846 3 -401 9 -869 12
-1038 4 -234 3 -311 -6 -322 -13 -16 -111 -20 -181 -9 -40 7 -71 48 -108 142
-19 49 -21 80 -27 455 l-6 402 24 55 25 55 -21 28 c-20 27 -21 43 -28 470 l-7
441 23 31 c33 43 124 104 188 126 61 21 68 22 86 10z"/>
<path d="M3425 6166 c-49 -17 -101 -37 -114 -45 l-23 -13 3 -669 c4 -634 5
-669 22 -669 42 0 141 81 189 154 l38 59 0 609 c0 480 -3 608 -12 607 -7 -1
-53 -16 -103 -33z"/>
<path d="M3459 4176 c-51 -18 -107 -54 -156 -100 l-43 -39 0 -418 c0 -430 2
-453 41 -495 20 -21 20 -21 -1 -75 -21 -52 -22 -69 -21 -472 l0 -418 36 -74
c20 -40 44 -76 53 -80 28 -11 138 -18 166 -11 l26 6 -1 388 c-1 213 -6 704
-13 1092 -11 693 -11 705 -31 707 -11 1 -36 -3 -56 -11z"/>
<path d="M3695 5688 c5 -477 10 -626 21 -671 16 -68 71 -172 110 -208 l26 -24
29 35 29 34 0 -28 c0 -21 -15 -43 -56 -85 -104 -105 -152 -247 -141 -419 4
-53 10 -601 13 -1217 3 -616 8 -1122 10 -1124 3 -3 36 11 75 30 125 60 276
180 360 285 66 83 128 187 145 243 18 59 18 152 0 194 -16 39 -79 102 -118
118 -16 6 -28 18 -28 25 0 19 46 18 110 -3 60 -19 124 -84 140 -142 13 -48 13
-141 -1 -199 -24 -99 -121 -278 -212 -392 -20 -24 -34 -46 -33 -48 5 -4 126
62 196 106 223 142 414 355 526 586 42 87 47 104 52 187 8 147 -32 322 -109
469 -58 111 -106 161 -217 226 -53 31 -108 67 -122 79 -14 12 -43 32 -65 46
-22 13 -45 28 -52 34 -6 5 -40 35 -75 65 -189 162 -306 476 -231 617 16 30 49
53 78 53 26 0 27 -20 2 -49 -37 -44 -41 -89 -16 -157 28 -77 105 -155 171
-173 56 -16 152 -3 224 30 81 36 242 78 307 79 20 0 37 2 37 5 0 42 -162 200
-252 244 -92 46 -188 40 -188 -12 0 -12 9 -37 21 -56 23 -37 20 -46 -11 -36
-33 10 -52 50 -54 109 -1 63 13 84 81 117 57 28 107 22 207 -25 146 -69 224
-130 317 -252 21 -28 39 -55 39 -61 0 -13 34 -43 49 -43 8 0 6 11 -8 34 -41
66 -74 191 -85 326 -6 72 13 187 50 297 19 56 34 111 34 123 0 32 29 37 52 9
21 -26 21 -27 -25 86 -44 110 -178 333 -270 450 -235 300 -561 537 -879 638
-107 34 -209 57 -250 57 -18 0 -19 -20 -13 -612z m268 461 c332 -111 913 -662
1012 -959 16 -48 16 -49 -8 -87 -51 -82 -80 -219 -73 -347 3 -48 8 -91 11 -96
10 -17 -5 -11 -38 14 -87 65 -195 92 -332 84 -89 -6 -156 -30 -192 -69 -27
-31 -53 -130 -46 -177 7 -44 1 -40 -30 19 -35 66 -84 91 -172 87 -87 -4 -127
-29 -161 -102 -78 -167 32 -452 280 -721 138 -150 310 -286 443 -351 50 -25
54 -29 83 -105 48 -126 62 -201 63 -339 2 -235 -75 -404 -220 -485 l-45 -25 6
28 c16 75 17 190 2 262 -19 90 -51 134 -127 173 -50 26 -61 28 -136 24 -100
-6 -171 -40 -218 -106 -56 -79 -30 -182 56 -226 35 -18 37 -45 13 -139 -24
-95 -81 -193 -154 -268 -60 -62 -69 -68 -107 -68 l-41 0 -6 292 c-3 161 -8
532 -11 823 -3 292 -8 665 -11 830 -6 264 -5 310 10 378 12 52 27 89 44 110
62 74 113 168 130 242 17 70 15 74 -40 68 -56 -7 -75 6 -113 72 l-23 40 -7
577 -7 578 53 -6 c30 -3 80 -15 112 -25z"/>
<path d="M3823 5619 c5 -516 6 -547 25 -604 31 -91 54 -103 140 -79 19 6 22 3
22 -23 0 -58 -32 -147 -80 -227 -27 -44 -62 -106 -77 -136 l-28 -55 2 -575 c2
-592 20 -1731 28 -1738 2 -2 20 1 39 8 87 28 224 247 233 371 4 64 4 64 -29
84 -19 12 -43 40 -57 68 -46 94 -3 190 113 247 55 27 76 32 139 32 135 0 229
-63 264 -179 18 -60 24 -193 11 -250 -6 -26 -4 -33 7 -33 23 0 117 100 148
157 88 164 90 422 4 638 -31 76 -35 81 -89 111 -200 113 -399 285 -538 469
-141 185 -203 331 -204 480 -1 104 22 166 78 208 85 66 226 56 285 -19 23 -29
25 -26 36 41 8 48 28 84 61 108 28 21 162 57 213 57 68 0 196 -31 254 -61 l57
-29 0 108 c0 122 16 197 60 288 17 34 30 67 30 73 0 6 -14 40 -31 74 -190 378
-771 877 -1073 922 l-49 8 6 -544z"/>
<path d="M4638 6153 c29 -2 74 -2 100 0 26 2 2 3 -53 3 -55 0 -76 -1 -47 -3z"/>
<path d="M4810 6150 c0 -5 16 -10 36 -10 21 0 33 4 29 10 -3 6 -19 10 -36 10
-16 0 -29 -4 -29 -10z"/>
<path d="M4570 6120 c99 -8 366 -13 359 -6 -2 2 -105 6 -229 8 -137 3 -188 2
-130 -2z"/>
<path d="M4545 6089 c-4 -5 22 -9 61 -9 37 0 65 2 63 4 -10 9 -119 14 -124 5z"/>
<path d="M4740 6080 c102 -12 252 -12 245 0 -4 6 -66 9 -158 8 -122 -1 -139
-2 -87 -8z"/>
<path d="M4525 6051 c50 -5 189 -11 310 -14 135 -3 189 -2 140 3 -44 4 -183
10 -310 13 -147 4 -197 3 -140 -2z"/>
<path d="M4575 6014 c48 -9 511 -22 518 -15 4 4 -54 11 -129 14 -138 7 -426 7
-389 1z"/>
<path d="M4735 5979 c99 -5 233 -12 298 -17 64 -4 117 -5 117 -1 0 11 -118 19
-360 23 l-235 5 180 -10z"/>
<path d="M4560 5960 c0 -14 29 -18 245 -29 435 -24 412 -23 391 -6 -14 11 -43
15 -105 15 -91 0 -445 17 -498 24 -18 3 -33 1 -33 -4z"/>
<path d="M4615 5911 c6 -5 136 -16 290 -25 154 -9 297 -18 318 -20 26 -3 37
-1 34 7 -2 8 -69 16 -203 23 -381 22 -448 24 -439 15z"/>
<path d="M4680 5871 c19 -5 125 -14 235 -20 110 -6 245 -13 300 -17 66 -3 95
-2 85 4 -8 6 -125 15 -260 21 -135 6 -279 13 -320 16 -57 3 -67 2 -40 -4z"/>
<path d="M4712 5826 c12 -8 86 -17 225 -24 114 -7 255 -15 312 -18 84 -5 103
-4 99 7 -3 10 -26 15 -69 17 -35 1 -153 9 -261 17 -109 8 -226 15 -260 15 -54
-1 -61 -3 -46 -14z"/>
<path d="M4740 5791 c0 -5 4 -12 9 -15 12 -8 462 -36 570 -36 54 0 82 3 75 10
-11 11 -68 16 -374 30 -129 6 -245 13 -257 16 -13 2 -23 0 -23 -5z"/>
<path d="M4791 5737 c12 -8 104 -18 280 -30 145 -10 290 -20 322 -23 58 -6 59
-6 48 15 -10 17 -21 21 -61 21 -74 0 -498 19 -555 25 -42 4 -47 3 -34 -8z"/>
<path d="M4830 5690 c0 -20 48 -29 225 -40 99 -6 238 -16 308 -22 70 -6 131
-8 134 -4 3 3 1 12 -6 19 -8 10 -61 18 -189 26 -97 7 -230 16 -294 21 -148 13
-178 12 -178 0z"/>
<path d="M4880 5635 c0 -8 8 -18 18 -24 9 -5 127 -14 262 -20 135 -6 275 -14
313 -18 48 -4 67 -3 67 6 0 6 -6 13 -12 16 -18 5 -382 35 -513 41 -60 3 -116
7 -122 9 -7 3 -13 -2 -13 -10z"/>
<path d="M4920 5582 c0 -5 6 -17 14 -27 15 -20 -1 -19 504 -43 83 -4 152 -4
152 -1 0 3 -6 13 -12 22 -15 19 -27 21 -358 37 -118 6 -234 13 -257 15 -24 3
-43 1 -43 -3z"/>
<path d="M4970 5514 c0 -5 4 -15 9 -22 9 -14 54 -19 421 -42 96 -6 190 -14
208 -17 36 -6 42 7 14 35 -15 15 -48 20 -198 30 -300 20 -454 25 -454 16z"/>
<path d="M5010 5451 c0 -3 8 -20 19 -37 l18 -30 269 -17 c148 -10 295 -19 327
-22 l57 -5 -14 28 c-8 16 -21 33 -28 39 -7 6 -67 13 -133 17 -66 3 -178 11
-250 16 -224 16 -265 18 -265 11z"/>
<path d="M5068 5343 c6 -11 17 -24 24 -30 11 -9 493 -43 605 -43 41 0 42 1 31
24 -12 27 -26 30 -233 41 -199 11 -261 15 -348 21 -86 6 -89 6 -79 -13z"/>
<path d="M5116 5247 l17 -35 91 -6 c50 -3 174 -10 276 -16 102 -6 206 -13 233
-15 51 -4 55 1 33 44 l-15 28 -213 12 c-117 6 -264 14 -326 17 l-113 6 17 -35z"/>
<path d="M5150 5183 c0 -6 8 -20 18 -31 15 -18 32 -22 132 -27 156 -8 393 -24
459 -31 l54 -6 -7 29 c-4 15 -10 31 -14 35 -4 4 -101 12 -217 18 -115 5 -258
13 -317 16 -72 5 -108 4 -108 -3z"/>
<path d="M5187 5113 c-2 -4 -1 -18 4 -30 6 -17 18 -22 61 -27 75 -7 583 -44
585 -42 1 1 -1 15 -6 32 -9 33 12 30 -381 53 -107 7 -209 14 -226 17 -18 3
-34 2 -37 -3z"/>
<path d="M5146 4886 l1 -153 46 -95 c53 -109 71 -130 63 -71 -2 21 -10 79 -17
128 -11 84 -72 322 -87 337 -4 4 -7 -62 -6 -146z"/>
<path d="M5216 5013 c10 -43 23 -51 109 -62 l80 -10 -84 4 -83 5 6 -32 c3 -18
10 -36 14 -40 7 -7 207 -32 352 -43 41 -3 117 -10 169 -16 52 -5 96 -7 99 -5
2 3 2 20 -2 39 l-6 34 -118 12 c-64 7 -169 19 -232 27 -107 12 -109 13 -30 9
47 -3 150 -9 229 -15 79 -6 144 -10 146 -8 7 10 -18 88 -28 86 -19 -3 -256 12
-432 28 -211 18 -197 19 -189 -13z"/>
<path d="M6402 4989 c-41 -66 -114 -127 -197 -164 -166 -74 -209 -100 -288
-175 -84 -81 -122 -145 -170 -290 -14 -41 -37 -102 -52 -135 -14 -33 -42 -112
-61 -175 -37 -121 -59 -165 -108 -217 -20 -22 -38 -33 -55 -32 -24 2 -24 2 -3
6 12 2 40 28 61 56 42 55 46 74 8 40 -49 -45 -96 -54 -147 -28 -38 20 -70 63
-114 156 -19 42 -54 96 -76 120 -43 45 -43 41 -3 -24 24 -39 105 -217 98 -217
-2 0 -27 48 -55 106 -48 99 -110 182 -152 205 -32 17 -170 22 -249 9 -41 -7
-132 -35 -204 -63 -71 -27 -166 -56 -209 -63 -126 -21 -173 -4 -238 83 -54 74
-61 52 -13 -42 43 -83 137 -196 208 -250 80 -61 223 -153 264 -170 21 -9 60
-34 86 -57 47 -39 48 -40 34 -11 -28 54 -153 207 -217 267 -42 38 -54 53 -34
43 37 -19 157 -144 217 -224 25 -35 74 -120 109 -190 35 -70 64 -120 66 -111
4 21 -68 200 -108 268 -105 179 -231 301 -358 346 -25 9 -30 13 -16 14 12 0
53 -16 91 -35 80 -40 194 -151 259 -251 58 -91 121 -232 143 -319 11 -44 31
-125 45 -180 l26 -100 -6 80 c-12 164 -48 293 -127 450 -77 154 -197 291 -305
350 -28 15 -50 30 -48 33 8 7 101 -48 153 -91 218 -182 369 -566 349 -891 -4
-61 -4 -107 0 -103 13 13 21 195 12 297 -21 239 -100 453 -229 613 l-41 52 53
-56 c216 -223 310 -705 202 -1032 -26 -79 -130 -262 -207 -367 -81 -110 -198
-222 -372 -358 l-29 -22 45 21 c128 62 338 212 471 337 311 291 490 649 523
1042 2 25 2 -2 0 -60 -5 -169 -52 -336 -145 -523 -80 -159 -184 -311 -287
-419 l-45 -46 47 -2 c72 -2 76 -2 76 -16 0 -24 20 -25 48 -4 49 38 183 174
231 235 179 225 297 473 354 745 15 66 25 101 26 81 1 -48 -44 -228 -86 -340
-101 -272 -225 -458 -507 -760 l-41 -44 33 17 c77 40 234 214 352 389 102 153
225 443 261 617 13 63 32 105 22 50 -14 -83 -53 -222 -88 -315 -96 -257 -229
-465 -443 -694 -59 -63 -106 -119 -104 -123 1 -4 -1 -7 -5 -6 -5 2 -9 1 -10
-2 -1 -3 -6 -17 -12 -33 -8 -20 -7 -27 2 -27 9 0 9 -2 1 -8 -13 -8 -57 -83
-52 -88 8 -7 151 101 222 167 42 39 76 66 76 61 0 -15 -181 -183 -264 -246
-95 -71 -131 -114 -58 -69 317 195 563 437 767 753 129 198 251 485 290 681
57 291 133 446 250 515 40 23 85 64 71 64 -3 0 -24 -11 -46 -25 -22 -14 -45
-25 -51 -25 -15 0 -126 -107 -149 -144 -10 -17 -32 -69 -49 -116 -31 -83 -92
-167 -113 -154 -5 3 -4 12 3 20 9 12 5 14 -27 14 -50 0 -59 7 -83 60 -24 54
-26 115 -6 190 9 30 20 125 26 210 5 85 16 189 24 231 18 94 18 108 -1 49 -24
-76 -42 -190 -48 -315 -4 -66 -11 -136 -16 -155 -9 -32 -9 -31 -5 15 2 28 5
96 6 152 2 117 27 256 65 354 28 76 92 145 229 249 124 94 200 175 230 242 30
68 29 98 -3 47z m-322 -251 c-30 -18 -89 -66 -131 -107 -65 -65 -84 -92 -126
-181 -28 -58 -65 -149 -83 -203 -17 -54 -34 -96 -37 -93 -10 9 59 202 108 304
42 85 66 119 123 177 63 64 164 135 191 135 6 0 -15 -15 -45 -32z m-1169 -574
c22 -25 22 -26 3 -16 -12 6 -24 18 -28 27 -8 21 -3 19 25 -11z m87 -31 c47
-71 54 -83 49 -83 -7 0 -87 107 -93 125 -12 31 7 13 44 -42z m86 -45 c10 -15
15 -28 13 -28 -6 0 -67 88 -67 97 0 9 31 -29 54 -69z m-694 -84 c0 -2 -7 -4
-15 -4 -8 0 -15 4 -15 10 0 5 7 7 15 4 8 -4 15 -8 15 -10z m1475 -219 c0 -58
-3 -97 -7 -87 -12 30 -7 192 6 192 0 0 1 -47 1 -105z m-511 3 c18 -89 21 -327
6 -428 -20 -124 -113 -400 -135 -400 -3 0 2 14 11 32 23 44 68 177 95 278 19
74 22 112 23 285 1 164 -2 210 -17 257 -19 64 -21 76 -8 63 5 -6 17 -45 25
-87z m256 62 c0 -5 -4 -10 -10 -10 -5 0 -10 5 -10 10 0 6 5 10 10 10 6 0 10
-4 10 -10z m-50 -108 c0 -9 -5 -24 -10 -32 -7 -11 -10 -5 -10 23 0 23 4 36 10
32 6 -3 10 -14 10 -23z m-63 -49 c-3 -10 -5 -4 -5 12 0 17 2 24 5 18 2 -7 2
-21 0 -30z m543 -147 c0 -50 -37 -180 -85 -296 -107 -261 -310 -590 -469 -757
-62 -66 -65 -51 -3 17 127 140 267 360 387 605 91 185 138 317 147 409 6 66
23 82 23 22z m-194 -32 c-8 -27 -15 -42 -15 -34 -1 22 20 93 25 87 3 -3 -1
-27 -10 -53z m-757 -94 c0 -10 -3 -8 -9 5 -12 27 -12 43 0 25 5 -8 9 -22 9
-30z m8 -42 c-3 -8 -6 -5 -6 6 -1 11 2 17 5 13 3 -3 4 -12 1 -19z m-17 -394
c-17 -61 -23 -49 -8 16 7 29 14 47 16 41 2 -7 -1 -33 -8 -57z m-23 -76 c-3 -8
-6 -5 -6 6 -1 11 2 17 5 13 3 -3 4 -12 1 -19z m-37 -115 c-37 -97 -101 -215
-119 -221 -8 -3 -2 14 14 39 37 60 112 217 121 254 4 16 9 25 11 18 2 -6 -10
-46 -27 -90z"/>
<path d="M5270 4826 c0 -14 3 -27 8 -30 7 -4 287 -29 477 -42 44 -3 92 -7 108
-10 22 -5 27 -2 27 15 0 11 -4 22 -8 25 -9 5 -230 28 -452 47 -63 5 -125 11
-137 14 -19 5 -23 1 -23 -19z"/>
<path d="M5280 4766 c0 -22 7 -24 124 -32 90 -6 108 -5 104 7 -3 9 -37 18
-104 26 -128 15 -124 15 -124 -1z"/>
<path d="M5612 4734 c3 -17 17 -20 137 -26 74 -5 137 -5 140 -2 13 13 -28 22
-135 28 -63 4 -122 10 -130 13 -12 4 -15 1 -12 -13z"/>
<path d="M5058 4723 c7 -3 16 -2 19 1 4 3 -2 6 -13 5 -11 0 -14 -3 -6 -6z"/>
<path d="M5290 4712 c0 -16 9 -20 61 -26 95 -10 126 -8 132 9 8 20 3 22 -100
30 -88 7 -93 6 -93 -13z"/>
<path d="M5030 4691 c0 -11 8 -22 18 -24 16 -4 16 -5 0 -6 -10 0 -18 -5 -18
-10 0 -5 25 -11 55 -13 30 -1 55 0 55 5 0 4 -15 8 -32 8 -31 2 -31 2 -5 6 33
5 26 23 -9 23 -14 0 -27 7 -30 15 -9 22 -34 18 -34 -4z"/>
<path d="M5536 4691 c-5 -7 -6 -14 -5 -16 2 -1 76 -7 164 -13 115 -7 164 -7
174 1 21 18 -27 26 -185 34 -106 4 -143 3 -148 -6z"/>
<path d="M5290 4656 c0 -21 8 -24 92 -32 70 -6 75 -5 80 14 7 26 -13 32 -104
32 -53 0 -68 -3 -68 -14z"/>
<path d="M5514 4646 c-3 -8 -3 -19 0 -24 3 -5 71 -12 152 -16 141 -6 174 -1
174 24 0 4 -51 11 -112 14 -62 4 -134 9 -160 12 -38 5 -49 3 -54 -10z"/>
<path d="M5030 4619 c0 -5 15 -9 34 -9 18 0 49 -3 67 -6 23 -5 31 -3 24 3 -13
14 -125 24 -125 12z"/>
<path d="M5300 4599 c0 -23 128 -38 141 -18 13 21 -1 27 -74 31 -57 2 -67 0
-67 -13z"/>
<path d="M5034 4585 c3 -9 6 -25 6 -36 0 -17 8 -19 77 -19 92 0 89 17 -5 26
-34 4 -62 10 -62 13 0 4 28 4 63 0 34 -3 64 -4 66 -2 13 10 -21 21 -83 27 -61
6 -68 5 -62 -9z"/>
<path d="M5490 4587 c0 -19 25 -24 176 -32 89 -5 113 -4 122 8 13 16 -12 20
-202 33 -84 6 -96 5 -96 -9z"/>
<path d="M5300 4540 c0 -16 7 -20 38 -20 20 0 47 -3 59 -6 16 -4 25 -1 29 11
10 24 -12 35 -73 35 -46 0 -53 -3 -53 -20z"/>
<path d="M5480 4530 c0 -15 12 -19 73 -24 149 -14 207 -10 207 14 0 11 -53 18
-182 24 -89 4 -98 3 -98 -14z"/>
<path d="M5040 4510 c0 -18 27 -25 113 -30 55 -3 86 -1 84 5 -5 15 -197 40
-197 25z"/>
<path d="M5972 4485 c-17 -37 -14 -45 4 -12 9 16 14 31 11 33 -2 2 -9 -7 -15
-21z"/>
<path d="M5286 4485 c-4 -12 6 -15 59 -15 69 0 94 14 44 24 -54 11 -96 7 -103
-9z"/>
<path d="M5474 4481 c-20 -20 25 -27 76 -12 21 7 17 8 -23 12 -27 2 -50 2 -53
0z"/>
<path d="M5638 4468 c-10 -6 -10 -10 2 -18 19 -13 52 -9 57 6 5 14 -41 24 -59
12z"/>
<path d="M5055 4461 c-12 -21 39 -31 156 -31 67 0 120 3 116 6 -6 6 -201 33
-244 34 -12 0 -24 -4 -28 -9z"/>
<path d="M5070 4406 c0 -8 5 -18 12 -22 15 -9 87 -5 107 6 17 9 1 15 -71 25
-39 5 -48 3 -48 -9z"/>
<path d="M4898 4383 c6 -2 18 -2 25 0 6 3 1 5 -13 5 -14 0 -19 -2 -12 -5z"/>
<path d="M4910 4352 c0 -4 7 -17 15 -28 10 -15 22 -20 40 -17 36 7 31 23 -7
23 -31 1 -32 1 -14 15 19 14 19 15 -7 15 -15 0 -27 -3 -27 -8z"/>
<path d="M5100 4346 c0 -19 39 -31 53 -17 7 7 2 13 -17 21 -35 13 -36 13 -36
-4z"/>
<path d="M5135 4290 c3 -5 8 -10 11 -10 2 0 4 5 4 10 0 6 -5 10 -11 10 -5 0
-7 -4 -4 -10z"/>
<path d="M4560 4170 c-8 -5 -10 -10 -5 -10 6 0 17 5 25 10 8 5 11 10 5 10 -5
0 -17 -5 -25 -10z"/>
<path d="M4290 4130 c8 -5 28 -10 44 -10 39 0 30 6 -19 13 -27 4 -35 3 -25 -3z"/>
<path d="M4378 4123 c6 -2 18 -2 25 0 6 3 1 5 -13 5 -14 0 -19 -2 -12 -5z"/>
<path d="M5930 3820 c0 -5 21 -10 46 -10 27 0 43 4 39 10 -3 6 -24 10 -46 10
-21 0 -39 -4 -39 -10z"/>
<path d="M5930 3781 c0 -10 48 -21 91 -21 32 0 47 15 23 24 -24 9 -114 7 -114
-3z"/>
<path d="M5942 3738 c3 -8 24 -14 52 -16 36 -2 47 0 44 10 -3 8 -24 14 -52 16
-36 2 -47 0 -44 -10z"/>
<path d="M4934 2467 c-6 -7 -28 -27 -49 -44 -21 -18 -34 -33 -28 -33 6 0 26
13 44 30 19 16 37 30 40 30 4 0 9 7 13 15 6 18 -5 19 -20 2z"/>
<path d="M4814 2358 l-19 -23 25 20 c14 11 27 21 29 22 2 2 0 3 -6 3 -5 0 -18
-10 -29 -22z"/>
<path d="M5030 1960 c-74 -27 -166 -54 -205 -61 -38 -6 -80 -20 -93 -30 -16
-12 -34 -16 -60 -12 -27 3 -33 2 -22 -6 10 -7 11 -13 5 -20 -21 -19 -190 -68
-320 -92 -38 -7 -65 -14 -58 -16 28 -10 270 40 380 78 232 80 553 208 518 208
-5 -1 -71 -23 -145 -49z"/>
<path d="M4530 1834 c-25 -7 -55 -13 -67 -13 -13 -1 -23 -5 -23 -10 0 -6 -21
-17 -47 -25 -27 -9 -34 -13 -18 -10 17 3 53 9 80 14 68 11 191 59 150 58 -16
0 -50 -6 -75 -14z"/>
<path d="M2961 2815 c-104 -94 -218 -278 -270 -437 -27 -80 -24 -88 56 -153
59 -48 110 -78 174 -100 l37 -13 28 61 c27 59 29 71 32 217 1 85 -1 225 -5
310 l-8 155 -44 -40z"/>
</g>
</svg>
