<svg xmlns="http://www.w3.org/2000/svg" viewBox="0 0 32 32" id="message"><path d="M16.145 4.5c-6.341 0-11.5 5.159-11.5 11.5 0 2.53.806 4.921 2.333 6.933a10.584 10.584 0 0 1-2.469 3.7.499.499 0 0 0 .347.86h.007a11.484 11.484 0 0 0 5.559-1.531 11.451 11.451 0 0 0 5.724 1.539c6.341 0 11.5-5.159 11.5-11.5C27.645 9.659 22.485 4.5 16.145 4.5zm0 22c-1.921 0-3.81-.535-5.463-1.547a.498.498 0 0 0-.522 0 10.512 10.512 0 0 1-4.08 1.449 11.681 11.681 0 0 0 1.935-3.383.498.498 0 0 0-.079-.483A10.381 10.381 0 0 1 5.645 16c0-5.79 4.71-10.5 10.5-10.5s10.5 4.71 10.5 10.5-4.71 10.5-10.5 10.5z"></path><path d="M22.745 12.42h-13.2a.5.5 0 0 0 0 1h13.2a.5.5 0 0 0 0-1zm0 3.52h-13.2a.5.5 0 0 0 0 1h13.2a.5.5 0 0 0 0-1zm0 3.52h-13.2a.5.5 0 0 0 0 1h13.2a.5.5 0 0 0 0-1z"></path></svg>