<svg xmlns="http://www.w3.org/2000/svg" viewBox="0 0 24 24"><g fill="none" stroke="#303c42" stroke-linecap="round" stroke-linejoin="round" data-name="&lt;Group&gt;"><path d="M12 .5a11.5 11.5 0 0 0-9.54 17.92L.5 23.5l5.23-1.87A11.5 11.5 0 1 0 12 .5Z" data-name="&lt;Path&gt;"/><path d="M9.5 14.5c1.3 1.3 4.17 3 5.5 3a2.53 2.53 0 0 0 2.5-2v-1s-1.23-.6-2-1-2 1-2 1A6.52 6.52 0 0 1 11 13a6.52 6.52 0 0 1-1.5-2.5s1.4-1.23 1-2-1-2-1-2h-1a2.53 2.53 0 0 0-2 2.5c0 1.33 1.7 4.2 3 5.5Z" data-name="&lt;Path&gt;"/></g></svg>